<svg width="138" height="36" viewBox="0 0 138 36" fill="none" xmlns="http://www.w3.org/2000/svg" xmlns:xlink="http://www.w3.org/1999/xlink">
<rect x="0.759399" y="0.0408936" width="35.0947" height="35.0947" fill="url(#pattern0_113_457)"></rect>
<path d="M53.7196 25.9863C52.6791 25.9863 51.7018 25.8042 50.7876 25.44C49.8809 25.0684 49.082 24.5259 48.3908 23.8124C47.7071 23.099 47.172 22.2257 46.7855 21.1926C46.399 20.1522 46.2058 18.963 46.2058 17.6253C46.2058 15.8713 46.5328 14.3738 47.1868 13.1326C47.8409 11.884 48.7364 10.929 49.8735 10.2676C51.0106 9.59869 52.2926 9.26425 53.7196 9.26425C55.6965 9.26425 57.2609 9.72504 58.4129 10.6466C59.5723 11.5607 60.3564 12.8465 60.7651 14.5038L58.0227 14.9386C57.718 13.9873 57.2201 13.2292 56.5289 12.6644C55.8377 12.0921 54.957 11.806 53.8868 11.806C52.8092 11.7911 51.9136 12.0252 51.2001 12.5083C50.4867 12.9914 49.9478 13.6714 49.5837 14.5484C49.2269 15.4254 49.0486 16.451 49.0486 17.6253C49.0486 18.7995 49.2269 19.8214 49.5837 20.691C49.9404 21.5531 50.4755 22.2257 51.189 22.7088C51.9099 23.1919 52.8092 23.4408 53.8868 23.4557C54.6969 23.4631 55.4066 23.3182 56.0161 23.0209C56.6255 22.7162 57.1234 22.2591 57.5099 21.6497C57.8964 21.0329 58.1565 20.2636 58.2903 19.3421H55.4587V17.2351H61.1442C61.159 17.354 61.1702 17.5287 61.1776 17.759C61.185 17.9894 61.1888 18.1269 61.1888 18.1715C61.1888 19.6877 60.8878 21.0366 60.2858 22.2183C59.6912 23.3925 58.8365 24.3141 57.7217 24.983C56.6069 25.6519 55.2729 25.9863 53.7196 25.9863ZM63.6507 25.6519V9.26425H66.3374V25.6519H63.6507ZM69.8997 11.7837V9.31999H72.5864V11.7837H69.8997ZM69.8997 25.6519V13.612H72.5864V25.6519H69.8997ZM90.3848 25.6519V18.3387C90.3848 17.5138 90.1804 16.8709 89.7716 16.4101C89.3629 15.9419 88.8092 15.7078 88.1106 15.7078C87.6795 15.7078 87.293 15.8081 86.9512 16.0088C86.6093 16.202 86.338 16.4919 86.1374 16.8784C85.9367 17.2574 85.8364 17.7107 85.8364 18.2384L84.6435 17.5361C84.6361 16.7037 84.8219 15.9716 85.2009 15.3399C85.5874 14.7008 86.1076 14.2028 86.7616 13.8461C87.4157 13.4894 88.144 13.311 88.9467 13.311C90.277 13.311 91.2952 13.7123 92.0012 14.515C92.7147 15.3102 93.0714 16.3581 93.0714 17.6587V25.6519H90.3848ZM75.9035 25.6519V13.612H78.278V17.3466H78.6124V25.6519H75.9035ZM83.1608 25.6519V18.3722C83.1608 17.5324 82.9565 16.8784 82.5477 16.4101C82.1389 15.9419 81.5815 15.7078 80.8755 15.7078C80.1917 15.7078 79.6418 15.9419 79.2256 16.4101C78.8168 16.8784 78.6124 17.4878 78.6124 18.2384L77.4084 17.4358C77.4084 16.6554 77.6017 15.9531 77.9881 15.3288C78.3746 14.7045 78.8949 14.214 79.5489 13.8572C80.2103 13.4931 80.9498 13.311 81.7673 13.311C82.6666 13.311 83.4172 13.5042 84.0192 13.8907C84.6287 14.2697 85.082 14.79 85.3793 15.4514C85.684 16.1054 85.8364 16.8449 85.8364 17.6699V25.6519H83.1608ZM110.438 25.6519V18.3387C110.438 17.5138 110.234 16.8709 109.825 16.4101C109.416 15.9419 108.863 15.7078 108.164 15.7078C107.733 15.7078 107.346 15.8081 107.005 16.0088C106.663 16.202 106.391 16.4919 106.191 16.8784C105.99 17.2574 105.89 17.7107 105.89 18.2384L104.697 17.5361C104.689 16.7037 104.875 15.9716 105.254 15.3399C105.641 14.7008 106.161 14.2028 106.815 13.8461C107.469 13.4894 108.197 13.311 109 13.311C110.33 13.311 111.349 13.7123 112.055 14.515C112.768 15.3102 113.125 16.3581 113.125 17.6587V25.6519H110.438ZM95.9569 25.6519V13.612H98.3314V17.3466H98.6658V25.6519H95.9569ZM103.214 25.6519V18.3722C103.214 17.5324 103.01 16.8784 102.601 16.4101C102.192 15.9419 101.635 15.7078 100.929 15.7078C100.245 15.7078 99.6952 15.9419 99.279 16.4101C98.8702 16.8784 98.6658 17.4878 98.6658 18.2384L97.4618 17.4358C97.4618 16.6554 97.6551 15.9531 98.0415 15.3288C98.428 14.7045 98.9482 14.214 99.6023 13.8572C100.264 13.4931 101.003 13.311 101.821 13.311C102.72 13.311 103.471 13.5042 104.073 13.8907C104.682 14.2697 105.135 14.79 105.433 15.4514C105.737 16.1054 105.89 16.8449 105.89 17.6699V25.6519H103.214ZM121.31 25.9863C120.091 25.9863 119.021 25.7225 118.1 25.1948C117.178 24.6671 116.457 23.9351 115.937 22.9986C115.424 22.0622 115.168 20.9845 115.168 19.7657C115.168 18.4502 115.42 17.3094 115.926 16.3432C116.431 15.3697 117.133 14.6153 118.033 14.0802C118.932 13.5451 119.972 13.2775 121.154 13.2775C122.403 13.2775 123.462 13.5711 124.331 14.1582C125.208 14.7379 125.859 15.5592 126.282 16.622C126.706 17.6847 126.866 18.937 126.762 20.3788H124.097V19.3978C124.09 18.0898 123.859 17.1348 123.406 16.5328C122.953 15.9308 122.239 15.6298 121.266 15.6298C120.166 15.6298 119.348 15.9716 118.813 16.6554C118.278 17.3317 118.01 18.3239 118.01 19.6319C118.01 20.8508 118.278 21.7946 118.813 22.4635C119.348 23.1324 120.129 23.4668 121.154 23.4668C121.816 23.4668 122.384 23.3219 122.86 23.0321C123.343 22.7348 123.715 22.3074 123.975 21.75L126.628 22.5527C126.167 23.6378 125.454 24.4813 124.487 25.0833C123.529 25.6853 122.47 25.9863 121.31 25.9863ZM117.163 20.3788V18.3499H125.446V20.3788H117.163ZM129.249 25.6519V13.612H131.624V16.5439L131.334 16.1649C131.482 15.7636 131.679 15.3994 131.925 15.0724C132.177 14.7379 132.478 14.4629 132.828 14.2474C133.125 14.0468 133.452 13.8907 133.809 13.7792C134.173 13.6603 134.544 13.5897 134.923 13.5674C135.302 13.5377 135.67 13.5525 136.027 13.612V16.1203C135.67 16.0162 135.258 15.9828 134.79 16.02C134.329 16.0571 133.913 16.1872 133.541 16.4101C133.169 16.6108 132.865 16.8672 132.627 17.1794C132.397 17.4915 132.226 17.8482 132.114 18.2496C132.003 18.6435 131.947 19.0708 131.947 19.5316V25.6519H129.249Z" fill="white"></path>
<defs>
<pattern id="pattern0_113_457" patternContentUnits="objectBoundingBox" width="1" height="1">
<use xlink:href="#image0_113_457" transform="scale(0.005)"></use>
</pattern>
<image id="image0_113_457" width="200" height="200"></image>
</defs>
</svg>