<svg width="125" height="35" viewBox="0 0 125 35" fill="none" xmlns="http://www.w3.org/2000/svg" xmlns:xlink="http://www.w3.org/1999/xlink">
<rect y="0.966736" width="33.1446" height="33.1446" rx="4.59982" fill="url(#pattern0_113_422)"></rect>
<path d="M42.3832 7.00385H45.2824V15.7589H56.3019V7.00385H59.201V28.1919H56.3019V18.283H45.2824V28.1919H42.3832V7.00385Z" fill="white"></path>
<path d="M69.4238 26.5198C71.145 26.5198 72.3254 25.8683 72.9648 24.5654C73.6042 23.2625 73.924 21.8129 73.924 20.2168C73.924 18.7744 73.6932 17.6013 73.2316 16.6974C72.5008 15.2743 71.2412 14.5628 69.4527 14.5628C67.8661 14.5628 66.7122 15.1685 65.9911 16.3801C65.2699 17.5917 64.9093 19.0533 64.9093 20.7648C64.9093 22.4091 65.2699 23.7793 65.9911 24.8755C66.7122 25.9717 67.8565 26.5198 69.4238 26.5198ZM69.5248 12.2983C71.5152 12.2983 73.198 12.9618 74.573 14.2887C75.9481 15.6157 76.6356 17.5676 76.6356 20.1446C76.6356 22.6351 76.0298 24.6928 74.8182 26.3179C73.6066 27.9429 71.7268 28.7554 69.1786 28.7554C67.0536 28.7554 65.366 28.0367 64.116 26.5991C62.866 25.1616 62.241 23.2313 62.241 20.8081C62.241 18.2119 62.8996 16.1445 64.217 14.606C65.5343 13.0675 67.3036 12.2983 69.5248 12.2983Z" fill="white"></path>
<path d="M80.2418 8.43066H82.8669V12.7433H85.3333V14.8635H82.8669V24.9455C82.8669 25.484 83.0496 25.8446 83.415 26.0273C83.6169 26.133 83.9534 26.1859 84.4246 26.1859C84.5496 26.1859 84.6842 26.1835 84.8284 26.1787C84.9727 26.1739 85.141 26.1619 85.3333 26.1427V28.1908C85.0352 28.2773 84.7251 28.3398 84.403 28.3783C84.0808 28.4168 83.7323 28.436 83.3573 28.436C82.1457 28.436 81.3235 28.1259 80.8908 27.5057C80.4581 26.8855 80.2418 26.0802 80.2418 25.0898V14.8635H78.1504V12.7433H80.2418V8.43066Z" fill="white"></path>
<path d="M89.4752 23.3437C89.5522 24.2091 89.7685 24.8726 90.1243 25.3342C90.7782 26.1707 91.9128 26.589 93.5282 26.589C94.4898 26.589 95.336 26.3799 96.0668 25.9616C96.7975 25.5433 97.1629 24.8966 97.1629 24.0216C97.1629 23.3581 96.8697 22.8533 96.2831 22.5072C95.9081 22.2956 95.1677 22.0504 94.0619 21.7716L91.9993 21.2523C90.682 20.9254 89.7108 20.56 89.0858 20.1561C87.9704 19.4542 87.4127 18.483 87.4127 17.2426C87.4127 15.781 87.9391 14.5983 88.9921 13.6944C90.045 12.7906 91.4609 12.3386 93.2398 12.3386C95.5667 12.3386 97.2447 13.0213 98.2735 14.3868C98.9178 15.2522 99.2303 16.1849 99.2111 17.1849H96.7591C96.711 16.5983 96.5043 16.0647 96.1389 15.5839C95.5427 14.9012 94.509 14.5598 93.0378 14.5598C92.057 14.5598 91.3142 14.7473 90.8094 15.1223C90.3046 15.4974 90.0522 15.9926 90.0522 16.608C90.0522 17.2811 90.3839 17.8195 91.0474 18.2234C91.432 18.4638 91.9993 18.6753 92.7494 18.858L94.4657 19.2763C96.3312 19.7282 97.5812 20.1657 98.2159 20.5888C99.2255 21.2523 99.7303 22.2956 99.7303 23.7187C99.7303 25.0938 99.2087 26.2813 98.1654 27.2813C97.1221 28.2813 95.5331 28.7814 93.3984 28.7814C91.1003 28.7814 89.4728 28.2597 88.5161 27.2164C87.5593 26.1731 87.0473 24.8822 86.98 23.3437H89.4752Z" fill="white"></path>
<path d="M109.134 12.398C110.23 12.398 111.292 12.6552 112.321 13.1697C113.35 13.6841 114.134 14.35 114.672 15.1673C115.191 15.9462 115.538 16.8549 115.711 17.8933C115.865 18.6049 115.941 19.7395 115.941 21.2973H104.619C104.667 22.8646 105.037 24.1219 105.73 25.069C106.422 26.0162 107.494 26.4897 108.946 26.4897C110.302 26.4897 111.384 26.0426 112.191 25.1483C112.653 24.6291 112.98 24.0281 113.172 23.3454H115.725C115.658 23.9127 115.434 24.545 115.054 25.2421C114.675 25.9392 114.249 26.509 113.778 26.9513C112.989 27.7205 112.013 28.2398 110.85 28.509C110.225 28.6629 109.518 28.7398 108.73 28.7398C106.807 28.7398 105.177 28.0402 103.84 26.6412C102.504 25.2421 101.835 23.2829 101.835 20.7636C101.835 18.2828 102.508 16.2683 103.855 14.7202C105.201 13.1721 106.96 12.398 109.134 12.398ZM113.273 19.2347C113.167 18.1097 112.922 17.2106 112.538 16.5375C111.826 15.2875 110.638 14.6625 108.975 14.6625C107.783 14.6625 106.783 15.0928 105.975 15.9534C105.167 16.814 104.739 17.9078 104.691 19.2347H113.273Z" fill="white"></path>
<path d="M119.646 8.43066H122.271V12.7433H124.738V14.8635H122.271V24.9455C122.271 25.484 122.454 25.8446 122.819 26.0273C123.021 26.133 123.358 26.1859 123.829 26.1859C123.954 26.1859 124.089 26.1835 124.233 26.1787C124.377 26.1739 124.545 26.1619 124.738 26.1427V28.1908C124.44 28.2773 124.129 28.3398 123.807 28.3783C123.485 28.4168 123.137 28.436 122.762 28.436C121.55 28.436 120.728 28.1259 120.295 27.5057C119.863 26.8855 119.646 26.0802 119.646 25.0898V14.8635H117.555V12.7433H119.646V8.43066Z" fill="white"></path>
<defs>
<pattern id="pattern0_113_422" patternContentUnits="objectBoundingBox" width="1" height="1">
<use xlink:href="#image0_113_422" transform="scale(0.00195312)"></use>
</pattern>
<image id="image0_113_422" width="512" height="512"></image>
</defs>
</svg>